<?xml version="1.0" encoding="utf-8"?>
<!-- Generator: Adobe Illustrator 28.0.0, SVG Export Plug-In . SVG Version: 6.00 Build 0)  -->
<svg version="1.1" id="Layer_1" xmlns="http://www.w3.org/2000/svg" xmlns:xlink="http://www.w3.org/1999/xlink" x="0px" y="0px"
	 viewBox="0 0 16 16" style="enable-background:new 0 0 16 16;" xml:space="preserve">
<style type="text/css">
	.st0{fill:none;stroke:#8EEF97;stroke-width:2;stroke-linecap:round;stroke-linejoin:round;}
	.st1{fill:#8EEF97;}
</style>
<path class="st0" d="M9.9,5.5v5.3l3-3 M9.9,10.8l-3-3"/>
<g>
	<polyline class="st0" points="5.4,12.3 5.4,13.8 9.9,13.8 	"/>
	<polyline class="st0" points="14.4,12.3 14.4,13.8 9.9,13.8 	"/>
</g>
<g>
	<path class="st1" d="M5.7,9.4H2.1v-7h7v1.3c0.2-0.1,0.5-0.2,0.8-0.2c0.2,0,0.4,0,0.6,0.1V1H0.7v9.8h6.4L5.7,9.4z"/>
	<path class="st1" d="M6.3,4.5v0.7H5.6v0.7H4.2v0.7H3.5v0.7H2.8V8h1.4h0.7C4.8,7.4,5,6.8,5.4,6.3C6,5.7,6.9,5.6,7.7,6V5.2H7V4.5H6.3
		z"/>
</g>
</svg>
